<?xml version="1.0" encoding="UTF-8"?>
<svg id="Layer_1" data-name="Layer 1" xmlns="http://www.w3.org/2000/svg" xmlns:xlink="http://www.w3.org/1999/xlink" viewBox="0 0 680.66 198.33">
  <defs>
    <style>
      .cls-1 {
        fill: url(#linear-gradient);
      }

      .cls-1, .cls-2 {
        stroke-width: 0px;
      }

      .cls-2 {
        fill: #fff;
      }
    </style>
    <linearGradient id="linear-gradient" x1="50.15" y1="144.63" x2="141.07" y2="53.7" gradientUnits="userSpaceOnUse">
      <stop offset="0" stop-color="#f5004c"/>
      <stop offset=".15" stop-color="#fd7c4c"/>
      <stop offset=".32" stop-color="#fbe823"/>
      <stop offset=".5" stop-color="#68e936"/>
      <stop offset=".65" stop-color="#32bfdb"/>
      <stop offset=".85" stop-color="#6f65f8"/>
      <stop offset="1" stop-color="#b806f3"/>
    </linearGradient>
  </defs>
  <path class="cls-1" d="M55.52,48.83c0-.67.54-1.2,1.2-1.2h9.04c.67,0,1.2.54,1.2,1.2v100.68c0,.67-.54,1.2-1.2,1.2h-9.04c-.67,0-1.2-.54-1.2-1.2V48.83ZM78.43,149.51c0,.67.54,1.2,1.2,1.2h9.04c.67,0,1.2-.54,1.2-1.2V48.83c0-.67-.54-1.2-1.2-1.2h-9.04c-.67,0-1.2.54-1.2,1.2v100.68ZM101.34,149.51c0,.67.54,1.2,1.2,1.2h9.04c.67,0,1.2-.54,1.2-1.2V48.83c0-.67-.54-1.2-1.2-1.2h-9.04c-.67,0-1.2.54-1.2,1.2v100.68ZM124.25,149.51c0,.67.54,1.2,1.2,1.2h9.04c.67,0,1.2-.54,1.2-1.2V48.83c0-.67-.54-1.2-1.2-1.2h-9.04c-.67,0-1.2.54-1.2,1.2v100.68ZM147.16,109.42c0,.67.54,1.2,1.2,1.2h9.05c.66,0,1.2-.54,1.2-1.2v-20.5c0-.67-.54-1.2-1.2-1.2h-9.05c-.67,0-1.2.54-1.2,1.2v20.5Z"/>
  <path class="cls-2" d="M218.57,75.71c-3.24,0-6.14.58-8.71,1.74-2.57,1.1-4.76,2.75-6.6,4.95-1.77,2.2-3.15,4.86-4.12,7.97-.92,3.12-1.38,6.63-1.38,10.54,0,5.13.76,9.59,2.29,13.38,1.53,3.73,3.82,6.6,6.87,8.61,3.05,2.02,6.9,3.02,11.55,3.02,2.81,0,5.5-.24,8.06-.73,2.63-.55,5.28-1.25,7.97-2.11v8.52c-2.57.98-5.19,1.68-7.88,2.11-2.69.49-5.8.73-9.35.73-6.66,0-12.22-1.37-16.68-4.12-4.4-2.75-7.7-6.66-9.9-11.73-2.2-5.07-3.3-11-3.3-17.78,0-4.95.67-9.47,2.02-13.56,1.41-4.15,3.42-7.73,6.05-10.72,2.63-2.99,5.87-5.28,9.71-6.87,3.91-1.65,8.4-2.47,13.47-2.47,3.3,0,6.54.37,9.71,1.1,3.18.67,6.05,1.65,8.61,2.93l-3.67,8.25c-2.14-.98-4.46-1.83-6.96-2.57-2.44-.79-5.04-1.19-7.79-1.19Z"/>
  <path class="cls-2" d="M257.23,133.53h-9.71V63.89h9.71v69.64Z"/>
  <path class="cls-2" d="M278.57,84.14v49.39h-9.71v-49.39h9.71ZM273.81,65.35c1.47,0,2.75.43,3.85,1.28,1.1.86,1.65,2.29,1.65,4.31s-.55,3.39-1.65,4.31c-1.1.86-2.38,1.28-3.85,1.28-1.59,0-2.93-.43-4.03-1.28-1.04-.92-1.56-2.35-1.56-4.31s.52-3.45,1.56-4.31c1.1-.86,2.44-1.28,4.03-1.28Z"/>
  <path class="cls-2" d="M311.9,134.45c-4.52,0-8.49-.89-11.91-2.66-3.42-1.77-6.08-4.52-7.97-8.25-1.89-3.79-2.84-8.58-2.84-14.39,0-6.11,1.01-11.06,3.02-14.85,2.08-3.79,4.86-6.57,8.34-8.34,3.54-1.83,7.57-2.75,12.1-2.75,2.75,0,5.32.31,7.7.92,2.44.55,4.46,1.19,6.05,1.92l-2.93,7.88c-1.71-.67-3.54-1.25-5.5-1.74-1.89-.49-3.7-.73-5.41-.73-3.05,0-5.59.67-7.61,2.02-1.96,1.28-3.42,3.24-4.4,5.86-.92,2.57-1.38,5.8-1.38,9.71s.49,6.87,1.47,9.44c.98,2.57,2.41,4.52,4.31,5.86,1.96,1.28,4.37,1.92,7.24,1.92s5.16-.31,7.24-.92c2.08-.61,4.03-1.41,5.86-2.38v8.43c-1.77,1.04-3.7,1.8-5.77,2.29-2.08.49-4.61.73-7.61.73Z"/>
  <path class="cls-2" d="M344.75,98.71c0,1.28-.06,2.75-.18,4.4-.06,1.65-.15,3.18-.28,4.58h.28c.49-.61,1.07-1.34,1.74-2.2.73-.92,1.47-1.83,2.2-2.75.73-.92,1.41-1.71,2.02-2.38l15.12-16.22h11.27l-19.89,21.17,21.17,28.22h-11.45l-16.31-22.08-5.68,4.77v17.32h-9.62V63.89h9.62v34.82Z"/>
  <path class="cls-2" d="M438.46,133.53h-9.9v-29.87h-31.25v29.87h-9.9v-65.43h9.9v27.12h31.25v-27.12h9.9v65.43Z"/>
  <path class="cls-2" d="M493.74,108.79c0,4.09-.55,7.73-1.65,10.9-1.1,3.18-2.66,5.86-4.67,8.06-2.02,2.2-4.46,3.88-7.33,5.04-2.87,1.1-6.11,1.65-9.71,1.65-3.3,0-6.35-.55-9.16-1.65-2.81-1.16-5.25-2.84-7.33-5.04-2.02-2.2-3.6-4.89-4.76-8.06-1.16-3.18-1.74-6.84-1.74-11,0-5.44.92-10.05,2.75-13.84,1.89-3.79,4.58-6.66,8.06-8.61,3.54-2.02,7.7-3.02,12.46-3.02s8.49,1.01,11.91,3.02c3.48,1.95,6.2,4.83,8.16,8.61,2.02,3.79,3.02,8.43,3.02,13.93ZM457.36,108.79c0,3.67.46,6.84,1.38,9.53.92,2.63,2.35,4.64,4.31,6.05,1.96,1.41,4.46,2.11,7.51,2.11s5.56-.7,7.51-2.11c1.96-1.41,3.39-3.42,4.31-6.05.92-2.69,1.37-5.86,1.37-9.53s-.49-6.96-1.47-9.53c-.92-2.57-2.35-4.52-4.31-5.86-1.89-1.41-4.4-2.11-7.51-2.11-4.58,0-7.91,1.53-9.99,4.58-2.08,3.05-3.12,7.36-3.12,12.92Z"/>
  <path class="cls-2" d="M545.47,84.14v49.39h-7.79l-1.38-6.51h-.46c-1.04,1.71-2.38,3.12-4.03,4.22-1.65,1.1-3.45,1.89-5.41,2.38-1.96.55-3.97.82-6.05.82-3.85,0-7.12-.61-9.8-1.83-2.63-1.28-4.64-3.24-6.05-5.86-1.34-2.69-2.02-6.11-2.02-10.26v-32.35h9.8v30.88c0,3.85.79,6.72,2.38,8.61,1.65,1.89,4.19,2.84,7.61,2.84s6.11-.67,8.06-2.02c1.96-1.34,3.33-3.3,4.12-5.86.85-2.63,1.28-5.77,1.28-9.44v-25.02h9.71Z"/>
  <path class="cls-2" d="M589.86,119.6c0,3.24-.79,5.96-2.38,8.16-1.59,2.2-3.88,3.88-6.87,5.04-2.99,1.1-6.6,1.65-10.81,1.65-3.48,0-6.48-.27-8.98-.82-2.44-.49-4.7-1.22-6.78-2.2v-8.52c2.2,1.04,4.73,1.99,7.61,2.84,2.87.79,5.68,1.19,8.43,1.19,3.67,0,6.29-.58,7.88-1.74,1.65-1.16,2.47-2.72,2.47-4.67,0-1.1-.31-2.08-.92-2.93-.61-.92-1.77-1.83-3.48-2.75-1.65-.98-4.09-2.08-7.33-3.3-3.12-1.28-5.77-2.54-7.97-3.76-2.2-1.28-3.88-2.78-5.04-4.49-1.16-1.77-1.74-4.03-1.74-6.78,0-4.28,1.71-7.54,5.13-9.81,3.48-2.32,8.06-3.48,13.75-3.48,2.99,0,5.8.31,8.43.92,2.69.55,5.29,1.41,7.79,2.57l-3.21,7.42c-1.4-.67-2.87-1.22-4.4-1.65-1.47-.49-2.96-.89-4.49-1.19-1.47-.31-2.99-.46-4.58-.46-2.93,0-5.16.46-6.69,1.37-1.53.92-2.29,2.2-2.29,3.85,0,1.16.34,2.17,1.01,3.02.73.86,1.99,1.71,3.76,2.57,1.77.86,4.19,1.89,7.24,3.12,3.06,1.16,5.65,2.35,7.79,3.57,2.2,1.22,3.85,2.72,4.95,4.49,1.16,1.77,1.74,4.03,1.74,6.78Z"/>
  <path class="cls-2" d="M619.57,83.22c4.34,0,8.06.92,11.18,2.75,3.12,1.77,5.5,4.34,7.15,7.7,1.71,3.36,2.57,7.33,2.57,11.91v5.31h-33.17c.12,5.07,1.44,8.95,3.94,11.64,2.57,2.69,6.14,4.03,10.72,4.03,3.18,0,5.99-.27,8.43-.82,2.51-.61,5.07-1.5,7.7-2.66v8.06c-2.44,1.1-4.95,1.92-7.52,2.47-2.5.55-5.5.82-8.98.82-4.77,0-8.98-.95-12.65-2.84-3.67-1.89-6.54-4.7-8.61-8.43-2.02-3.79-3.02-8.43-3.02-13.93s.92-10.26,2.75-14.11c1.89-3.85,4.49-6.78,7.79-8.8,3.36-2.08,7.27-3.12,11.73-3.12ZM619.57,90.74c-3.48,0-6.29,1.13-8.43,3.39-2.08,2.26-3.3,5.47-3.67,9.62h23.28c0-2.57-.4-4.83-1.19-6.78-.79-1.96-2.02-3.48-3.67-4.58-1.65-1.1-3.76-1.65-6.32-1.65Z"/>
</svg>