<svg xmlns:xlink="http://www.w3.org/1999/xlink"  width="392" height="299" viewBox="0 0 392 299" fill="none" xmlns="http://www.w3.org/2000/svg">
<rect width="255.417" height="255.417" transform="matrix(0.866025 0.5 0 1 -52 128.707)" fill="#FF4438" stroke="#091A23" stroke-width="3.01575" stroke-linejoin="bevel"/>
<rect width="255.417" height="255.417" transform="matrix(0.866025 -0.5 0 1 169.094 256.413)" fill="#6B2B2B" stroke="#091A23" stroke-width="3.01575" stroke-linejoin="bevel"/>
<rect width="255.417" height="255.417" transform="matrix(0.866025 0.5 -0.866025 0.5 169.211 1)" fill="#FF4438" stroke="#FF4438" stroke-width="3.01575" stroke-linejoin="bevel"/>
<path fill-rule="evenodd" clip-rule="evenodd" d="M249.672 162.417L193.829 130.177L249.67 97.937L305.513 130.178L249.672 162.417Z" fill="white"/>
<path fill-rule="evenodd" clip-rule="evenodd" d="M168.532 213.359L105.483 176.958L196.244 161.018L168.634 213.419L168.566 213.379L168.532 213.359Z" fill="white"/>
<path fill-rule="evenodd" clip-rule="evenodd" d="M108.416 147.498C92.9605 156.422 67.9065 156.421 52.45 147.498C36.9936 138.574 36.9932 124.109 52.4491 115.186C67.905 106.262 92.9588 106.262 108.415 115.186C123.872 124.11 123.872 138.575 108.416 147.498Z" fill="white"/>
<path d="M203.403 64.179C204.634 70.475 206.346 77.4942 195.9 83.525C186.569 88.9123 174.898 86.1879 167.995 82.4847C174.344 83.7894 181.827 83.4947 187.902 79.8006C199.511 72.6526 196.944 61.6792 187.12 56.0068C175.368 49.2219 158.091 49.4103 142.808 58.2338C131.878 64.5444 122.477 74.7537 120.129 83.6733C126.774 87.6216 139.313 90.505 139.703 89.1675C141.894 81.5239 144.457 75.9397 148.606 71.4843C149.578 82.1848 151.151 107.428 152.559 111.219C156.51 113.164 170.881 116.212 173.105 114.928C173.781 114.537 173.977 113.979 173.98 113.199C173.223 105.427 172.03 98.7573 170.494 92.5519C180.143 97.3761 195.596 101.165 208.025 93.9886C219.15 87.5661 222.18 76.5848 209.197 63.2817C207.56 61.6674 203.118 62.2302 203.401 64.1801L203.403 64.179ZM176.186 63.0971C181.87 66.3786 179.051 71.2296 173.925 74.1891C171.185 75.7711 168.364 76.5724 165.768 76.9954C164.212 72.5609 162.508 68.0751 160.697 63.2672C167.411 60.5098 172.738 61.1037 176.186 63.0949L176.186 63.0971Z" fill="white"/>
<path d="M390.408 213.848L169.211 341.556L-51.9863 213.848" stroke="#FF4438" stroke-opacity="0.15" stroke-width="2.0105" stroke-linejoin="bevel"/>
<path d="M390.404 213.851L169.207 341.559L-51.9902 213.851" stroke="#091A23" stroke-width="3.01575" stroke-linejoin="bevel"/>
<rect width="255.417" height="255.417" transform="matrix(0.866025 0.5 -0.866025 0.5 169.211 1)" stroke="#091A23" stroke-width="3.01575" stroke-linejoin="bevel"/>
<path d="M390.394 298.986L169.197 426.694L-52 298.986" stroke="#091A23" stroke-width="3.01575" stroke-linejoin="bevel"/>
</svg>
