<svg xmlns="http://www.w3.org/2000/svg" width="208" height="27" fill="none" viewBox="0 0 208 27">
  <path fill="#013A4C" d="M65.458 20.514a1 1 0 0 1-.325.742 1.127 1.127 0 0 1-.799.31c-.212 0-.424-.059-.611-.179a.979.979 0 0 1-.425-.49l-1.21-2.885H54.36l-1.223 2.885c-.1.203-.25.37-.425.49a1.09 1.09 0 0 1-.599.18 1.06 1.06 0 0 1-.786-.323 1.035 1.035 0 0 1-.312-.754c0-.132.037-.3.112-.479l6.041-13.847c.213-.479.562-.718 1.049-.718.512 0 .874.24 1.048.718l6.067 13.883c.087.191.125.335.125.467ZM61.35 16.24l-3.07-7.348-3.146 7.348h6.216ZM80.112 5.745c.213-.203.475-.3.8-.3.311 0 .573.097.786.3.212.203.312.455.312.778V20.49c0 .31-.1.574-.312.778a1.09 1.09 0 0 1-.787.299 1.41 1.41 0 0 1-.487-.096.794.794 0 0 1-.374-.275L70.663 9.228V20.49c0 .299-.1.562-.312.766a1.115 1.115 0 0 1-.811.31c-.312 0-.574-.095-.787-.298-.212-.204-.312-.455-.312-.778V6.523c0-.311.1-.575.313-.778.212-.203.474-.3.786-.3.162 0 .312.037.474.109.163.071.287.167.387.275l9.387 11.968V6.51c0-.3.112-.563.325-.766Zm8.646 15.511a1.127 1.127 0 0 1-.799.31c-.3 0-.561-.107-.786-.31a.984.984 0 0 1-.337-.766V6.523c0-.3.112-.563.337-.766a1.14 1.14 0 0 1 .786-.311c.312 0 .587.108.8.311.211.203.324.467.324.766v6.187l7.127-6.833c.175-.168.325-.276.462-.335a1.13 1.13 0 0 1 .462-.096c.3 0 .537.084.699.263.162.168.25.383.25.634 0 .36-.138.67-.412.934l-5.493 5.278 5.593 7.3c.137.192.212.407.212.659 0 .275-.088.514-.275.73a.902.902 0 0 1-.711.323c-.4 0-.712-.156-.924-.455l-5.442-7.073-1.548 1.484v4.967c0 .299-.113.562-.325.766Zm24.62-1.401c.199.18.299.407.299.706 0 .3-.1.551-.299.73-.2.192-.462.276-.799.276h-9.724c-.312 0-.587-.108-.799-.311a1.017 1.017 0 0 1-.325-.766V6.523c0-.311.113-.575.325-.778.212-.203.474-.3.799-.3h9.724c.324 0 .599.097.799.276.199.192.299.43.299.73 0 .287-.1.527-.299.706-.2.18-.462.264-.799.264h-8.613v5.026h6.179c.312 0 .574.096.786.275a.898.898 0 0 1 .312.707c0 .287-.1.526-.312.706-.212.191-.474.275-.786.275h-6.179v5.158h8.613c.337.012.599.108.799.287Zm15.082.742a.952.952 0 0 1-.287.694c-.199.192-.449.276-.786.276-.412 0-.736-.168-.974-.515l-3.694-5.697h-3.146v5.135c0 .299-.1.562-.312.766a1.114 1.114 0 0 1-.811.31c-.312 0-.587-.107-.799-.31a1.017 1.017 0 0 1-.325-.766V6.523c0-.311.113-.575.325-.778.212-.203.474-.3.799-.3h3.869c1.061 0 2.01.216 2.846.635.836.431 1.498 1.03 1.96 1.795.462.766.699 1.652.699 2.645 0 .982-.262 1.843-.774 2.597s-1.223 1.329-2.11 1.712l3.296 5.074c.162.228.224.455.224.694Zm-6.128-7.228c.973 0 1.772-.264 2.409-.79.636-.527.948-1.209.948-2.059 0-.91-.312-1.651-.948-2.226-.637-.574-1.436-.862-2.409-.862h-2.759v5.937h2.759Zm19.971-7.765c.798.275 1.597.73 2.421 1.364.175.12.287.252.35.383.062.132.087.287.087.467a.85.85 0 0 1-.312.682c-.212.18-.449.263-.724.263-.275 0-.524-.083-.749-.263-.587-.479-1.161-.826-1.723-1.041-.561-.215-1.285-.323-2.172-.323a5.872 5.872 0 0 0-3.083.85 6.206 6.206 0 0 0-2.234 2.297 6.316 6.316 0 0 0-.824 3.172c0 1.16.275 2.214.824 3.171a6.263 6.263 0 0 0 2.234 2.286 5.9 5.9 0 0 0 3.083.85c1.374 0 2.697-.455 3.957-1.364.25-.168.475-.252.712-.252.275 0 .499.096.674.276.175.191.275.43.275.73 0 .287-.113.538-.35.766-1.548 1.197-3.308 1.795-5.268 1.795-1.535 0-2.933-.36-4.206-1.09a7.915 7.915 0 0 1-2.996-2.991c-.736-1.269-1.098-2.657-1.098-4.189 0-1.508.362-2.896 1.098-4.153a8.275 8.275 0 0 1 2.996-2.992c1.273-.73 2.671-1.101 4.206-1.101 1.086-.012 2.023.132 2.822.407Zm16.08 14.06c.212.204.325.467.325.766 0 .3-.113.563-.325.766a1.127 1.127 0 0 1-.799.311h-8.912a1.1 1.1 0 0 1-.787-.31 1.006 1.006 0 0 1-.312-.767V6.463c0-.299.113-.562.325-.766a1.09 1.09 0 0 1 .774-.31c.312 0 .586.107.799.31.212.204.324.467.324.766v12.89h7.789c.325 0 .587.108.799.311ZM171 6.235c1.298.706 2.309 1.675 3.033 2.932.724 1.257 1.086 2.68 1.086 4.273 0 1.591-.362 3.028-1.086 4.284a7.689 7.689 0 0 1-3.021 2.944c-1.285.707-2.771 1.053-4.431 1.053-1.66 0-3.146-.346-4.444-1.053-1.298-.706-2.309-1.675-3.021-2.944-.711-1.256-1.073-2.68-1.073-4.284 0-1.592.362-3.016 1.073-4.273.712-1.257 1.723-2.226 3.021-2.932 1.298-.706 2.784-1.053 4.444-1.053 1.648 0 3.121.347 4.419 1.053Zm-7.714 1.711a5.884 5.884 0 0 0-2.272 2.274c-.549.958-.824 2.035-.824 3.22 0 1.184.275 2.25.824 3.219a5.997 5.997 0 0 0 2.284 2.274c.974.563 2.072.838 3.295.838 1.224 0 2.322-.276 3.296-.838a6.088 6.088 0 0 0 2.284-2.274c.549-.957.824-2.034.824-3.22 0-1.184-.275-2.25-.824-3.219a5.965 5.965 0 0 0-2.272-2.274c-.973-.55-2.072-.826-3.308-.826-1.248 0-2.346.276-3.307.826Zm14.586-2.261c.212-.203.475-.299.799-.299.325 0 .599.096.811.3.213.203.312.454.312.777v9.635c0 .73.2 1.376.612 1.962.412.575.974 1.03 1.698 1.353.724.323 1.548.49 2.484.49.886 0 1.685-.155 2.384-.49.699-.323 1.248-.778 1.648-1.353.399-.574.586-1.232.586-1.962V6.463c0-.31.113-.574.325-.778.212-.203.474-.299.799-.299.312 0 .574.096.786.3.212.203.312.454.312.777v9.635c0 1.1-.287 2.082-.874 2.956-.586.873-1.385 1.556-2.434 2.046-1.036.491-2.222.73-3.545.73-1.36 0-2.584-.239-3.645-.73-1.073-.49-1.897-1.16-2.496-2.034-.599-.862-.899-1.855-.899-2.968V6.463c.013-.31.125-.574.337-.778Zm26.134.742a7.37 7.37 0 0 1 2.946 2.86c.699 1.222 1.048 2.598 1.048 4.154s-.349 2.944-1.048 4.165c-.699 1.22-1.685 2.178-2.946 2.872-1.261.682-2.709 1.03-4.319 1.03h-3.895c-.312 0-.586-.108-.799-.312a1.016 1.016 0 0 1-.324-.766V6.463c0-.31.112-.574.324-.778.213-.203.475-.299.799-.299h3.895c1.61 0 3.058.347 4.319 1.041Zm-1.136 12.387a5.6 5.6 0 0 0 2.197-2.202c.524-.945.786-1.998.786-3.183 0-1.185-.262-2.238-.786-3.172a5.649 5.649 0 0 0-2.197-2.19c-.936-.527-2.01-.79-3.196-.79h-2.771v12.315h2.771c1.199.012 2.26-.251 3.196-.778Z"/>
  <path fill="#00B5BE" d="M40.83 13.38c-1.523-1.556-3.345-2.393-5.58-2.537l-.686-.048-.137-.646c-.6-2.872-2.123-5.302-4.52-7.24C27.512.98 24.704 0 21.546 0c-2.51 0-4.819.622-6.89 1.843-2.06 1.22-3.658 2.896-4.756 4.99l-.225.42-.487.048c-2.609.263-4.743 1.292-6.528 3.171C.874 12.34 0 14.517 0 17.114c0 2.753.986 5.039 3.02 6.99C5.056 26.054 7.44 27 10.31 27h24.266c2.347 0 4.294-.778 5.98-2.394 1.685-1.615 2.496-3.482 2.496-5.732.037-2.13-.7-3.938-2.222-5.494Zm-14.367 9.575h-9.799v-1.353h9.799v1.353Zm-4.918-2.382-4.881-4.68h4.269v-3.35h-2.147V11.31h2.172v-.814c-.936-.251-1.61-1.065-1.61-2.035 0-1.16.986-2.118 2.21-2.118 1.21 0 2.209.946 2.209 2.118 0 .934-.625 1.724-1.498 2.011v.838h2.072v1.233h-2.035v3.35H26.5l-4.955 4.68Z"/>
  <path fill="#00B5BE" d="M21.53 7.573c-.5 0-.912.395-.912.873 0 .48.412.874.911.874.5 0 .912-.395.912-.874 0-.478-.412-.873-.912-.873Z"/>
</svg>
