<?xml version="1.0" encoding="utf-8"?>
<!-- Generator: Adobe Illustrator 26.0.3, SVG Export Plug-In . SVG Version: 6.00 Build 0)  -->
<svg version="1.1" id="Layer_1" xmlns="http://www.w3.org/2000/svg" xmlns:xlink="http://www.w3.org/1999/xlink" x="0px" y="0px"
	 viewBox="0 0 260.6 55" style="enable-background:new 0 0 260.6 55;" xml:space="preserve">
<style type="text/css">
	.st0{fill:#FF0053;}
	.st1{fill:#42003F;}
</style>
<g id="Group_32247" transform="translate(4501.242 -1491)">
	<g id="Group_16288" transform="translate(-4501.242 1491)">
		<path id="Path_12890" class="st0" d="M36.3,26.8c-0.2-0.1-0.4-0.2-0.6-0.2c-1.3,0-6.4,0.1-10.9,0.2c-3.4-0.1-4.4-1.6-4.4-1.6
			l-4.7-6.4c-0.2-0.2-0.5-0.3-0.7-0.1c0,0,0,0,0,0C9.4,23.3,4.6,28.8,1.1,35c-3.6,6.4,4.9,18.7,5.6,19.9c0-8.3,6.8-15,15.1-14.9
			c8.2,0,14.8,6.6,14.9,14.7c1-1.4,5.8-8,7.5-13.1C45.9,36.4,37.9,28.3,36.3,26.8"/>
		<path id="Path_12892" class="st1" d="M6.8,36.2c-7.6,6.3,0,18.4,0,18.8c0-0.3-6.8-8.6-6.8-15.3c-0.1-1.6,0.3-3.2,1.1-4.7
			C4.6,28.8,9.4,23.3,15,18.8c0.1-0.1,0.3-0.1,0.5,0C15.7,19.5,17.1,27.6,6.8,36.2"/>
		<path id="Path_12893" class="st1" d="M36.3,26.8c-0.2-0.2-0.4-0.2-0.6-0.2c-2.7,8.3-7.3,8-18.8,12.2C6.4,42.7,6.7,55,6.7,55l0,0v0
			c0-8.3,6.8-15,15-14.9c8.1,0,14.8,6.5,14.9,14.7c1-1.4,5.8-8,7.5-13.1C45.9,36.4,37.9,28.3,36.3,26.8"/>
		<path id="Path_12894" class="st0" d="M21.5,15c0,0,3.8-1.6,17.6,6.1c0.4,0.2,0.7,0.6,0.9,1c0.1,0.4,0.2,0.8,0,1.1
			c-0.4,1.2-1,2.2-1.8,3.1c-0.1,0.1-0.2,0.1-0.3,0c0,0,0,0,0,0C36.6,25,28.5,16.1,21.5,15"/>
		<path id="Path_12895" class="st0" d="M9.7,2.6l3.5,1.3c0,0,0,0,0,0c0.6,0.3,0.9,1.1,0.7,1.7l-0.1,2.1c-0.1,1.8,0.6,3.5,2,4.7
			c1.7,1.4,3.6,2.7,5.5,3.9c0,0,0.1,0.1,0.1,0.1c-0.1,1.5-1.1,2.8-2.4,3.5c0,0-0.1,0-0.1,0c-0.6-0.4-6.3-4.5-7.8-7.4
			c-0.4-0.9-0.5-1.8-0.3-2.8L12,6.2c0.2-0.5,0.1-1-0.1-1.4c0,0,0,0,0,0l-2.2-2c-0.1,0-0.1-0.1,0-0.2C9.6,2.6,9.7,2.5,9.7,2.6"/>
		<path id="Path_12896" class="st0" d="M30.3,0l-1.8,2.6c0,0,0,0,0,0c-0.2,0.5-0.1,1.2,0.4,1.5L30,5.5c1,1.1,1.3,2.7,1,4.1
			c-0.5,1.8-1.1,3.6-1.9,5.3c0,0,0,0.1,0,0.1c1.1,0.5,2.2,0.9,3.3,1.2c0,0,0.1,0,0.1-0.1c0.2-0.6,2.1-6.1,1.7-8.8
			c-0.1-0.8-0.5-1.5-1.2-2l-2.5-1.7C30.3,3.4,30,3,30,2.6c0,0,0,0,0,0l0.5-2.5C30.5,0.1,30.5,0,30.3,0C30.4,0,30.4,0,30.3,0"/>
		<path id="Path_12897" class="st0" d="M26.3,20.4c0.1,0.7-0.3,1.5-1.1,1.6c-0.7,0.1-1.5-0.3-1.6-1.1c-0.1-0.7,0.3-1.5,1.1-1.6
			c0.1,0,0.2,0,0.3,0C25.7,19.2,26.3,19.7,26.3,20.4"/>
	</g>
	<g id="Group_31961" transform="translate(-4441.902 1502)">
		<path id="Path_12898" class="st1" d="M0,2.7l11.2,0c4.5,0.1,7.1,4.4,7.1,8.6c0.1,2.1-0.6,4.1-1.9,5.7c1.6,1.1,2.8,3.2,2.8,6.2
			c0,4.5-2.9,8.9-7.4,9.8C7.8,33.6,3.9,34.3,0,35.1L0,2.7z M10.1,14.4c1.2-0.1,1.9-1,1.9-2.5s-0.8-2.3-1.9-2.2
			C8.5,9.8,7.7,9.8,6,9.9c0,1.9,0,2.9,0,4.8C7.7,14.6,8.5,14.5,10.1,14.4 M10.7,26.1c1.4-0.3,2.3-1.6,2.2-3c0-1.5-0.9-2.6-2.2-2.5
			C8.8,20.9,7.9,21,6,21.2c0,2.2,0,3.4,0,5.6C7.9,26.5,8.8,26.4,10.7,26.1"/>
		<path id="Path_12899" class="st1" d="M22,21.1c0-6.2,0-12.3,0-18.5l6,0c0,5.7,0,11.4,0,17.2c0,3.4,1.8,4.1,3.3,3.9
			c1.6-0.2,3.4-1.2,3.4-4.4c0-5.6,0-11.1,0.1-16.7l6,0c0,5.7,0,11.3-0.1,17c0.2,5.5-4.3,9.9-9.4,10.9C25.7,31.5,22.1,26.1,22,21.1"
			/>
		<path id="Path_12900" class="st1" d="M44.5,2.6l6,0c0,6.5,0,13.1-0.1,19.6c4.2-0.3,6.3-0.4,10.5-0.6c0,2.3,0,3.4,0,5.7
			c-5.5,0.4-11,0.8-16.5,1.4L44.5,2.6z"/>
		<path id="Path_12901" class="st1" d="M63.9,2.5l6,0l0,18.7c4.2-0.2,6.3-0.2,10.5-0.3c0,2.2,0,3.3,0,5.5c-5.5,0.2-11,0.4-16.5,0.7
			C63.9,18.9,63.9,10.7,63.9,2.5"/>
		<path id="Path_12902" class="st1" d="M82.2,20.8c1.9-1.4,2.9-2.2,4.8-3.6c0.5,0.8,3.4,3.4,6.4,3.4c2.1,0,2.3-0.7,2.3-1.4
			c0-1.2-3.2-1.9-4.7-2.4c-3.4-1.1-7.7-3.2-7.8-7.3c-0.1-5,4.9-7.5,9.5-7.5c3.7,0,7.9,1.8,9.6,5.3c-1.9,1.3-2.8,1.9-4.7,3.2
			C96.2,9,94.1,8.1,92,8.1c-1.2,0-1.8,0.4-1.8,1.1c0,1.4,3,2,4.6,2.5c3.4,1.2,7.6,3.4,7.8,7.3c0.2,5.1-4.9,7.6-9.7,7.6
			C88.6,26.7,84.1,24.8,82.2,20.8"/>
		<path id="Path_12903" class="st1" d="M105.4,2.5c3.8,0,7.5,0,11.3,0c4.6,0.1,7.5,4.2,7.6,8.5c0,4.3-3,8.3-7.5,8.3
			c-2.1-0.1-3.2-0.1-5.3-0.2c0,3,0,4.5,0,7.4c-2.4-0.1-3.6-0.1-6-0.2C105.4,18.4,105.4,10.5,105.4,2.5 M115.6,13.3
			c1.3,0.1,2.5-0.9,2.6-2.2c0.1-1.3-0.9-2.5-2.2-2.6c-0.1,0-0.2,0-0.3,0c-1.7,0-2.5,0-4.2,0c0,1.9,0,2.9,0,4.8
			C113.1,13.3,114,13.3,115.6,13.3"/>
		<path id="Path_12904" class="st1" d="M127.2,2.5l11.7,0c4.6,0.2,7.7,4.8,7.6,9.2c-0.1,4.1-1.9,6.9-4.2,8c1.9,3.7,2.9,5.6,4.8,9.4
			c-2.8-0.3-4.2-0.4-6.9-0.7c-1.7-3.4-2.6-5-4.3-8.3c-1-0.1-1.5-0.1-2.5-0.1l0,7.8c-2.4-0.2-3.6-0.3-6-0.5
			C127.2,19.1,127.2,10.8,127.2,2.5 M137.8,14c1.3,0.1,2.4-0.8,2.5-2.1c0-0.1,0-0.3,0-0.4c0.1-1.4-1-2.5-2.3-2.6c-0.1,0-0.1,0-0.2,0
			c-1.8,0-2.8-0.1-4.6-0.1c0,2,0,3,0,5C135.1,13.9,136,13.9,137.8,14"/>
		<path id="Path_12905" class="st1" d="M149.8,2.6c5.5,0,11,0,16.6,0c0,2.7,0,4,0,6.7c-4.2-0.2-6.3-0.2-10.5-0.4c0,1.7,0,2.6,0,4.3
			c3.9,0.2,5.9,0.3,9.8,0.5c0,2.7,0,4,0,6.7c-3.9-0.4-5.8-0.5-9.7-0.8c0,1.7,0,2.6,0,4.3c4.2,0.4,6.3,0.6,10.5,1.1c0,2.7,0,4,0,6.7
			c-5.5-0.8-11-1.5-16.5-2.2C149.9,20.5,149.9,11.6,149.8,2.6"/>
		<path id="Path_12906" class="st1" d="M169.8,2.6c5.5,0,11,0,16.6,0.1v7.5c-4.2-0.2-6.3-0.3-10.5-0.5c0,1.9,0,2.8,0,4.7
			c3.9,0.3,5.8,0.4,9.7,0.7c0,3,0,4.5,0,7.4c-3.9-0.5-5.8-0.7-9.7-1.1c0,1.9,0,2.8,0,4.7c4.2,0.5,6.3,0.8,10.5,1.5v7.5
			c-5.5-1-11-2-16.5-2.9C169.9,22.4,169.9,12.5,169.8,2.6"/>
	</g>
</g>
<g>
	<path class="st0" d="M253.8,6H252v5.5h-0.8V6h-1.9V5.2h4.5V6z"/>
	<path class="st0" d="M260.6,11.5h-0.8V6.6l-2.1,3.4h-0.1l-2.1-3.4v4.9h-0.8V5.2h0.9l2,3.3l2-3.3h0.9V11.5z"/>
</g>
</svg>
